<!-- icon666.com - MILLIONS vector ICONS FREE --><svg id="Capa_1" enable-background="new 0 0 512 512" viewBox="0 0 512 512" xmlns="http://www.w3.org/2000/svg"><g><g><path d="m155.043 16.195-12.825-6.845c-27.318 17.033-45.624 39.962-54.45 52.724-3.5 5.06-1.929 12.026 3.393 15.115l58.043 33.683 13.247-9.597z" fill="#fdabdf"/><path d="m356.957 16.195 12.825-6.845c27.318 17.033 45.624 39.961 54.45 52.724 3.5 5.06 1.929 12.026-3.393 15.115l-58.043 33.683-13.247-9.597z" fill="#fdabdf"/><g fill="#ffddf1"><path d="m173.109 154.694 11.32 12.455c4.895 5.386 7.966 12.133 8.861 19.289l9.593 5.313h84.785c.006-.747.009-1.189.009-1.189.059-8.664 3.314-17.001 9.141-23.413l11.32-12.455c16.524-18.181 26.202-41.548 27.373-66.088l1.507-33.949-5.069-8.062c-3.591 5.306-9.151 9.172-15.695 10.555-23.203 4.904-59.664 18.842-60.254 67.054-.59-48.212-37.051-62.15-60.254-67.053-10.196-2.155-18.033-10.319-19.691-20.607l-4.465-33.781c-.266-2.013-2.328-3.263-4.236-2.568l-25.136 9.155 3.518 79.257c1.171 24.54 10.85 47.906 27.373 66.087z"/><path d="m296.722 229.87c-3.993-4.032-6.779-9.025-8.167-14.428h-86.56l-11.178 5.313c-1.53 3.354-3.647 6.445-6.292 9.115-22.562 22.781-79.698 91.545-97.264 218.226l5.156 7.431c13.281 1.261 22.334-8.188 36.669-2.606 12.344 4.806 14.084 17.106 27.438 20.095 13.32 2.982 22.12-7.984 35.302-6.048 13.155 1.932 17.107 14.774 30.771 15.771 13.65.996 20.085-11.081 33.403-11.087 13.318.006 19.753 12.083 33.403 11.087 13.664-.997 17.616-13.839 30.771-15.771 13.182-1.936 21.982 9.03 35.302 6.048 13.354-2.99 15.094-15.289 27.438-20.095 4.207-1.638 7.957-1.976 11.494-1.676-17.048-128.687-74.938-198.406-97.686-221.375z"/></g><g fill="#ffceed"><path d="m309.117 191.75 9.593-5.313c.895-7.156 3.966-13.903 8.861-19.289l11.32-12.455c16.524-18.181 26.202-41.548 27.373-66.088l3.518-79.257-25.135-9.156c-1.908-.695-3.97.555-4.236 2.568l-4.465 33.781c-.594 3.685-1.992 7.09-3.996 10.052l-1.865 42.011c-1.171 24.54-10.85 47.907-27.373 66.088l-11.32 12.455c-5.827 6.412-9.082 14.749-9.141 23.413 0 0-.004.442-.009 1.189h26.875z"/><path d="m327.474 229.87c-2.645-2.67-4.762-5.762-6.292-9.115l-11.178-5.313h-26.876c1.387 5.403 4.174 10.396 8.167 14.428 22.754 22.975 80.668 92.725 97.699 221.479 10.96-1.417 19.162 5.153 30.336 4.202l5.409-7.454c-17.566-126.682-74.703-195.446-97.265-218.227z"/></g><g><path d="m397.027 475.043c-.913-10.447-2.103-20.53-3.519-30.276-3.274-.171-6.742.236-10.595 1.736-12.344 4.806-14.084 17.106-27.438 20.095-13.32 2.982-22.12-7.984-35.302-6.048-13.155 1.932-17.107 14.774-30.771 15.771-13.65.996-20.085-11.081-33.403-11.087-13.318.006-19.753 12.083-33.403 11.087-13.664-.997-17.616-13.839-30.771-15.771-13.182-1.936-21.982 9.03-35.302 6.048-13.354-2.99-15.094-15.289-27.438-20.095-16.114-6.274-25.553 6.442-41.825 1.593-1.207 8.707-2.231 17.683-3.04 26.941-.478 5.47 4.061 10.155 9.535 9.715 11.061-.889 19.745-7.512 32.561-2.628 12.613 4.806 14.391 17.106 28.037 20.095 13.61 2.982 22.603-7.984 36.072-6.048 13.442 1.932 17.48 14.774 31.442 15.771 13.948.996 20.523-11.081 34.131-11.087 13.608.006 20.184 12.083 34.131 11.087 13.962-.997 18-13.839 31.442-15.771 13.47-1.936 22.462 9.03 36.072 6.048 13.645-2.99 15.424-15.289 28.037-20.095 3.665-1.397 6.991-1.85 10.133-1.767.912-1.547 1.383-3.377 1.214-5.314z" fill="#fdabdf"/><path d="m424.738 448.096c-14.437 4.302-23.5-5.213-36.614-3.033 1.397 9.655 2.572 19.638 3.476 29.98.187 2.145-.405 4.162-1.515 5.803h.001c10.509-2.107 18.411 3.124 28.157 3.907 5.474.44 10.013-4.245 9.535-9.715-.808-9.259-1.832-18.235-3.04-26.942z" fill="#fc90d2"/><path d="m287.546 207.246c.064-8.088.132-16.685.132-16.685.009-1.386.109-2.761.28-4.124h-94.668c.17 1.362.27 2.738.28 4.124 0 0 .068 8.597.132 16.685.037 4.705-.966 9.311-2.884 13.508h99.612c-1.918-4.197-2.921-8.803-2.884-13.508z" fill="#fdabdf"/><path d="m318.298 207.246c.064-8.088.132-16.685.132-16.685.009-1.386.109-2.761.28-4.124h-36.179c-.17 1.362-.27 2.738-.28 4.124 0 0-.068 8.597-.132 16.685-.037 4.705.966 9.311 2.884 13.508h36.179c-1.918-4.197-2.921-8.803-2.884-13.508z" fill="#fc90d2"/></g></g></g></svg>



